<mxfile host="app.diagrams.net" modified="2024-05-02T19:32:56.699Z" agent="Mozilla/5.0 (Macintosh; Intel Mac OS X 10_15_7) AppleWebKit/537.36 (KHTML, like Gecko) Chrome/124.0.0.0 Safari/537.36" etag="o7TxVg3e9IY3G5yuM3rH" version="24.3.1" type="google">
  <diagram name="Page-1" id="dDYwkRgEBULW5S1lIVEG">
    <mxGraphModel grid="1" page="1" gridSize="10" guides="1" tooltips="1" connect="1" arrows="1" fold="1" pageScale="1" pageWidth="850" pageHeight="1100" math="0" shadow="0">
      <root>
        <mxCell id="0" />
        <mxCell id="1" parent="0" />
        <mxCell id="Ta34NmjoKkFBt7tg1UlJ-1" value="Owned By CallFrame" style="rounded=0;whiteSpace=wrap;html=1;" vertex="1" parent="1">
          <mxGeometry x="290" y="220" width="120" height="60" as="geometry" />
        </mxCell>
        <mxCell id="Ta34NmjoKkFBt7tg1UlJ-2" value="Instantiate" style="endArrow=classic;html=1;rounded=0;entryX=0.5;entryY=0;entryDx=0;entryDy=0;exitX=0.5;exitY=1;exitDx=0;exitDy=0;" edge="1" parent="1" source="Ta34NmjoKkFBt7tg1UlJ-3" target="Ta34NmjoKkFBt7tg1UlJ-1">
          <mxGeometry width="50" height="50" relative="1" as="geometry">
            <mxPoint x="350" y="140" as="sourcePoint" />
            <mxPoint x="450" y="350" as="targetPoint" />
          </mxGeometry>
        </mxCell>
        <mxCell id="Ta34NmjoKkFBt7tg1UlJ-3" value="" style="ellipse;whiteSpace=wrap;html=1;aspect=fixed;fillColor=#000000;" vertex="1" parent="1">
          <mxGeometry x="345" y="130" width="10" height="10" as="geometry" />
        </mxCell>
        <mxCell id="Ta34NmjoKkFBt7tg1UlJ-4" value="Drop" style="endArrow=classic;html=1;rounded=0;exitX=0;exitY=0.5;exitDx=0;exitDy=0;entryX=1;entryY=0.5;entryDx=0;entryDy=0;" edge="1" parent="1" source="Ta34NmjoKkFBt7tg1UlJ-1" target="Ta34NmjoKkFBt7tg1UlJ-5">
          <mxGeometry width="50" height="50" relative="1" as="geometry">
            <mxPoint x="360" y="150" as="sourcePoint" />
            <mxPoint x="180" y="230" as="targetPoint" />
          </mxGeometry>
        </mxCell>
        <mxCell id="Ta34NmjoKkFBt7tg1UlJ-5" value="" style="ellipse;whiteSpace=wrap;html=1;aspect=fixed;fillColor=#000000;" vertex="1" parent="1">
          <mxGeometry x="170" y="245" width="10" height="10" as="geometry" />
        </mxCell>
        <mxCell id="Ta34NmjoKkFBt7tg1UlJ-7" value="Globalized" style="rounded=0;whiteSpace=wrap;html=1;" vertex="1" parent="1">
          <mxGeometry x="290" y="340" width="120" height="60" as="geometry" />
        </mxCell>
        <mxCell id="Ta34NmjoKkFBt7tg1UlJ-8" value="Globalize" style="endArrow=classic;html=1;rounded=0;entryX=0.5;entryY=0;entryDx=0;entryDy=0;exitX=0.5;exitY=1;exitDx=0;exitDy=0;" edge="1" parent="1" source="Ta34NmjoKkFBt7tg1UlJ-1" target="Ta34NmjoKkFBt7tg1UlJ-7">
          <mxGeometry width="50" height="50" relative="1" as="geometry">
            <mxPoint x="360" y="150" as="sourcePoint" />
            <mxPoint x="360" y="230" as="targetPoint" />
          </mxGeometry>
        </mxCell>
        <mxCell id="Ta34NmjoKkFBt7tg1UlJ-9" value="Owned By Another Object" style="rounded=0;whiteSpace=wrap;html=1;" vertex="1" parent="1">
          <mxGeometry x="500" y="220" width="170" height="60" as="geometry" />
        </mxCell>
        <mxCell id="Ta34NmjoKkFBt7tg1UlJ-10" value="Move" style="endArrow=classic;html=1;rounded=0;entryX=0;entryY=0.5;entryDx=0;entryDy=0;exitX=1;exitY=0.5;exitDx=0;exitDy=0;" edge="1" parent="1" source="Ta34NmjoKkFBt7tg1UlJ-1" target="Ta34NmjoKkFBt7tg1UlJ-9">
          <mxGeometry width="50" height="50" relative="1" as="geometry">
            <mxPoint x="360" y="290" as="sourcePoint" />
            <mxPoint x="360" y="350" as="targetPoint" />
          </mxGeometry>
        </mxCell>
      </root>
    </mxGraphModel>
  </diagram>
</mxfile>
